<svg width="60" height="60" viewBox="0 0 60 60" fill="none" xmlns="http://www.w3.org/2000/svg">
<g clip-path="url(#clip0_1_331)">
<path d="M26.7933 38.4738H8.21053C7.54111 38.4738 7 37.9315 7 37.2633C7 36.5951 7.54111 36.0527 8.21053 36.0527H26.7933C27.4627 36.0527 28.0038 36.5951 28.0038 37.2633C28.0038 37.9315 27.4615 38.4738 26.7933 38.4738Z" fill="#ED8C0C"/>
<path d="M26.7933 23.9474H8.21053C7.54111 23.9474 7 23.4051 7 22.7369C7 22.0687 7.54111 21.5264 8.21053 21.5264H26.7933C27.4627 21.5264 28.0038 22.0687 28.0038 22.7369C28.0038 23.4051 27.4615 23.9474 26.7933 23.9474Z" fill="#ED8C0C"/>
<path d="M25.1579 31.2106H0.947343C0.277922 31.2106 -0.263184 30.6683 -0.263184 30.0001C-0.263184 29.3319 0.277922 28.7896 0.947343 28.7896H25.1579C25.8273 28.7896 26.3684 29.3319 26.3684 30.0001C26.3684 30.6683 25.8273 31.2106 25.1579 31.2106Z" fill="#ED8C0C"/>
<path d="M37.2631 34.7236C34.8578 34.7236 32.421 33.1015 32.421 30.0001C32.421 26.8987 34.8578 25.2766 37.2631 25.2766C39.6684 25.2766 42.1052 26.8987 42.1052 30.0001C42.1052 33.1015 39.6684 34.7236 37.2631 34.7236ZM37.2631 27.6977C36.1458 27.6977 34.8421 28.3005 34.8421 30.0001C34.8421 31.6997 36.1458 32.3025 37.2631 32.3025C38.3804 32.3025 39.6842 31.6997 39.6842 30.0001C39.6842 28.3005 38.3804 27.6977 37.2631 27.6977Z" fill="#ED8C0C"/>
<path d="M39.8307 28.6431C39.5208 28.6431 39.2109 28.5245 38.9749 28.2884C38.5015 27.8151 38.5015 27.05 38.9749 26.5767L45.8228 19.7288C46.2961 19.2555 47.0612 19.2555 47.5345 19.7288C48.0078 20.2021 48.0078 20.9671 47.5345 21.4405L40.6865 28.2884C40.4505 28.5245 40.1406 28.6431 39.8307 28.6431Z" fill="#ED8C0C"/>
<path d="M32.9838 35.4909C32.6739 35.4909 32.364 35.3723 32.1279 35.1363C31.6546 34.6641 31.6546 33.8979 32.1279 33.4246L33.8396 31.7117C34.3129 31.2384 35.078 31.2384 35.5513 31.7117C36.0246 32.1838 36.0246 32.95 35.5513 33.4234L33.8396 35.1363C33.6036 35.3723 33.2937 35.4909 32.9838 35.4909Z" fill="#ED8C0C"/>
<path d="M37.2631 52.9999C36.5937 52.9999 36.0526 52.4576 36.0526 51.7894V48.1578C36.0526 47.4896 36.5937 46.9473 37.2631 46.9473C37.9326 46.9473 38.4737 47.4896 38.4737 48.1578V51.7894C38.4737 52.4576 37.9326 52.9999 37.2631 52.9999Z" fill="#ED8C0C"/>
<path d="M52.6707 46.618C52.3608 46.618 52.0509 46.4994 51.8148 46.2633L49.2473 43.6946C48.774 43.2213 48.774 42.455 49.2473 41.9829C49.7206 41.5096 50.4857 41.5096 50.959 41.9829L53.5265 44.5517C53.9998 45.025 53.9998 45.7912 53.5265 46.2633C53.2893 46.4994 52.9794 46.618 52.6707 46.618Z" fill="#ED8C0C"/>
<path d="M50.1019 18.3717C49.792 18.3717 49.4822 18.2531 49.2461 18.017C48.7728 17.5449 48.7728 16.7786 49.2461 16.3053L51.8136 13.7366C52.2869 13.2633 53.052 13.2633 53.5253 13.7366C53.9986 14.2087 53.9986 14.9749 53.5253 15.4483L50.9578 18.017C50.7217 18.2531 50.4118 18.3717 50.1019 18.3717Z" fill="#ED8C0C"/>
<path d="M37.2631 13.0526C36.5937 13.0526 36.0526 12.5103 36.0526 11.8421V8.21053C36.0526 7.54232 36.5937 7 37.2631 7C37.9326 7 38.4737 7.54232 38.4737 8.21053V11.8421C38.4737 12.5103 37.9326 13.0526 37.2631 13.0526Z" fill="#ED8C0C"/>
<path d="M59.0526 31.2106H55.421C54.7516 31.2106 54.2104 30.6683 54.2104 30.0001C54.2104 29.3319 54.7516 28.7896 55.421 28.7896H59.0526C59.722 28.7896 60.2631 29.3319 60.2631 30.0001C60.2631 30.6683 59.722 31.2106 59.0526 31.2106Z" fill="#ED8C0C"/>
<path d="M28.5341 16.6842H15.4737C14.8043 16.6842 14.2632 16.1419 14.2632 15.4737C14.2632 14.8055 14.8043 14.2632 15.4737 14.2632H28.5341C29.2035 14.2632 29.7446 14.8055 29.7446 15.4737C29.7446 16.1419 29.2035 16.6842 28.5341 16.6842Z" fill="#ED8C0C"/>
<path d="M28.5341 45.7367H15.4737C14.8043 45.7367 14.2632 45.1944 14.2632 44.5262C14.2632 43.858 14.8043 43.3157 15.4737 43.3157H28.5341C29.2035 43.3157 29.7446 43.858 29.7446 44.5262C29.7446 45.1944 29.2035 45.7367 28.5341 45.7367Z" fill="#ED8C0C"/>
<path d="M37.1882 52.977C33.6402 52.977 30.0558 52.1599 26.7269 50.4446C26.1325 50.1383 25.8989 49.4084 26.2051 48.814C26.5114 48.2197 27.2425 47.986 27.8357 48.2923C37.3311 53.1852 49.1591 49.9071 54.7639 40.8294C60.3843 31.725 58.0323 19.6694 49.4097 13.3831C43.1646 8.83156 34.6958 8.17303 27.8357 11.7066C27.2425 12.0128 26.5114 11.7804 26.2051 11.1848C25.8989 10.5905 26.1313 9.86051 26.7269 9.55424C34.3931 5.60309 43.8546 6.33788 50.8357 11.4257C60.4739 18.4516 63.1044 31.926 56.823 42.1005C52.5244 49.0658 44.9477 52.977 37.1882 52.977Z" fill="#ED8C0C"/>
</g>
<defs>
<clipPath id="clip0_1_331">
<rect width="60" height="60" fill="white"/>
</clipPath>
</defs>
</svg>
